<?xml version="1.0" encoding="UTF-8" standalone="no"?>
<svg
   xmlns:dc="http://purl.org/dc/elements/1.1/"
   xmlns:cc="http://creativecommons.org/ns#"
   xmlns:rdf="http://www.w3.org/1999/02/22-rdf-syntax-ns#"
   xmlns:svg="http://www.w3.org/2000/svg"
   xmlns="http://www.w3.org/2000/svg"
   xmlns:xlink="http://www.w3.org/1999/xlink"
   xmlns:sodipodi="http://sodipodi.sourceforge.net/DTD/sodipodi-0.dtd"
   xmlns:inkscape="http://www.inkscape.org/namespaces/inkscape"
   id="svg2"
   sodipodi:modified="TRUE"
   viewBox="0 0 1052.4 744.09"
   inkscape:export-ydpi="51.28381"
   inkscape:export-xdpi="51.28381"
   version="1.0"
   inkscape:output_extension="org.inkscape.output.svg.inkscape"
   sodipodi:docname="stage.svg"
   inkscape:export-filename="/home/valessio/Desktop/stage.png"
   inkscape:version="1.0.2 (1.0.2+r75+1)"
   sodipodi:version="0.32">
  <sodipodi:namedview
     id="base"
     bordercolor="#666666"
     inkscape:pageshadow="2"
     inkscape:guide-bbox="true"
     pagecolor="#ffffff"
     inkscape:window-height="1027"
     width="1052.3622px"
     inkscape:zoom="1.0610557"
     inkscape:window-x="0"
     height="744.09448px"
     borderopacity="1.0"
     inkscape:current-layer="layer1"
     inkscape:cx="511.37709"
     inkscape:cy="372.04724"
     showguides="true"
     inkscape:window-y="0"
     inkscape:window-width="1920"
     inkscape:pageopacity="0.0"
     inkscape:document-units="px"
     inkscape:document-rotation="0"
     showgrid="false"
     inkscape:window-maximized="1" />
  <defs
     id="defs4">
    <linearGradient
       id="linearGradient19812"
       inkscape:collect="always">
      <stop
         id="stop19814"
         style="stop-color:#000000"
         offset="0" />
      <stop
         id="stop19816"
         style="stop-color:#000000;stop-opacity:0"
         offset="1" />
    </linearGradient>
    <linearGradient
       id="linearGradient19729">
      <stop
         id="stop19731"
         style="stop-color:#808080"
         offset="0" />
      <stop
         id="stop19733"
         style="stop-color:#000000"
         offset="1" />
    </linearGradient>
    <linearGradient
       id="linearGradient18740"
       inkscape:collect="always">
      <stop
         id="stop18742"
         style="stop-color:#808080"
         offset="0" />
      <stop
         id="stop18744"
         style="stop-color:#808080;stop-opacity:0"
         offset="1" />
    </linearGradient>
    <linearGradient
       id="linearGradient5237"
       y2="563.36"
       gradientUnits="userSpaceOnUse"
       y1="711.22"
       gradientTransform="matrix(1.0098 0 0 1.0206 -8.634 -11.953)"
       x2="214.54"
       x1="214.54"
       inkscape:collect="always">
      <stop
         id="stop5233"
         style="stop-color:#804000"
         offset="0" />
      <stop
         id="stop5235"
         style="stop-color:#804000;stop-opacity:0"
         offset="1" />
    </linearGradient>
    <linearGradient
       id="linearGradient5251"
       y2="593.57"
       gradientUnits="userSpaceOnUse"
       y1="706.03"
       gradientTransform="translate(20,-2)"
       x2="264.72"
       x1="335.66"
       inkscape:collect="always">
      <stop
         id="stop5247"
         style="stop-color:#000000"
         offset="0" />
      <stop
         id="stop5249"
         style="stop-color:#000000;stop-opacity:0"
         offset="1" />
    </linearGradient>
    <linearGradient
       id="linearGradient5264"
       y2="569.35"
       gradientUnits="userSpaceOnUse"
       y1="633.36"
       gradientTransform="translate(-19.817 15.078)"
       x2="557.12"
       x1="662.66"
       inkscape:collect="always">
      <stop
         id="stop5260"
         style="stop-color:#000000"
         offset="0" />
      <stop
         id="stop5262"
         style="stop-color:#000000;stop-opacity:0"
         offset="1" />
    </linearGradient>
    <radialGradient
       id="radialGradient8405"
       cx="370.5"
       gradientUnits="userSpaceOnUse"
       cy="633.09"
       r="66.733"
       gradientTransform="matrix(-.16357 -2.3498 1.9935 -.13877 -815.08 1585.7)"
       inkscape:collect="always">
      <stop
         id="stop8401"
         style="stop-color:#ffffff"
         offset="0" />
      <stop
         id="stop8403"
         style="stop-color:#ffffff;stop-opacity:0"
         offset="1" />
    </radialGradient>
    <radialGradient
       id="radialGradient8422"
       cx="701.91"
       gradientUnits="userSpaceOnUse"
       cy="568.72"
       r="40.543"
       gradientTransform="matrix(.56943 -3.523 2.7729 .44818 -1288.5 2817.2)"
       inkscape:collect="always">
      <stop
         id="stop8418"
         style="stop-color:#ffffff"
         offset="0" />
      <stop
         id="stop8420"
         style="stop-color:#ffffff;stop-opacity:0"
         offset="1" />
    </radialGradient>
    <filter
       id="filter10429"
       height="1.2664"
       width="1.0735"
       y="-.13321"
       x="-.036754"
       inkscape:collect="always">
      <feGaussianBlur
         id="feGaussianBlur10431"
         stdDeviation="3.7780999"
         inkscape:collect="always" />
    </filter>
    <linearGradient
       id="linearGradient10443"
       y2="449.33"
       gradientUnits="userSpaceOnUse"
       y1="462.5"
       gradientTransform="translate(20,-2)"
       x2="334.84"
       x1="333.74"
       inkscape:collect="always">
      <stop
         id="stop10439"
         style="stop-color:#999999"
         offset="0" />
      <stop
         id="stop10441"
         style="stop-color:#999999;stop-opacity:0"
         offset="1" />
    </linearGradient>
    <linearGradient
       id="linearGradient11465"
       y2="654.05"
       gradientUnits="userSpaceOnUse"
       y1="658.7"
       x2="-1114.7"
       x1="-1075.9"
       inkscape:collect="always">
      <stop
         id="stop11445"
         style="stop-color:#333333"
         offset="0" />
      <stop
         id="stop11447"
         style="stop-color:#333333;stop-opacity:0"
         offset="1" />
    </linearGradient>
    <linearGradient
       id="linearGradient11467"
       y2="470.85"
       gradientUnits="userSpaceOnUse"
       y1="472.4"
       x2="-1110.1"
       x1="-1032.4"
       inkscape:collect="always">
      <stop
         id="stop11435"
         style="stop-color:#666666"
         offset="0" />
      <stop
         id="stop11437"
         style="stop-color:#666666;stop-opacity:0"
         offset="1" />
    </linearGradient>
    <radialGradient
       id="radialGradient11469"
       cx="-1048.8"
       gradientUnits="userSpaceOnUse"
       cy="295.51"
       r="97.035"
       inkscape:collect="always">
      <stop
         id="stop11425"
         style="stop-color:#a3a3a3"
         offset="0" />
      <stop
         id="stop11427"
         style="stop-color:#333333;stop-opacity:0"
         offset="1" />
    </radialGradient>
    <filter
       id="filter13510"
       inkscape:collect="always">
      <feGaussianBlur
         id="feGaussianBlur13512"
         stdDeviation="7.3396197"
         inkscape:collect="always" />
    </filter>
    <linearGradient
       id="linearGradient15474"
       y2="347.55"
       gradientUnits="userSpaceOnUse"
       y1="340.12"
       gradientTransform="translate(-40,-2)"
       x2="638.28"
       x1="642.33"
       inkscape:collect="always">
      <stop
         id="stop15470"
         style="stop-color:#999999"
         offset="0" />
      <stop
         id="stop15472"
         style="stop-color:#999999;stop-opacity:0"
         offset="1" />
    </linearGradient>
    <linearGradient
       id="linearGradient19758"
       y2="904.53"
       xlink:href="#linearGradient18740"
       gradientUnits="userSpaceOnUse"
       x2="1770.9"
       y1="638.67"
       x1="1631.8"
       inkscape:collect="always" />
    <linearGradient
       id="linearGradient19760"
       y2="823.6"
       xlink:href="#linearGradient19812"
       gradientUnits="userSpaceOnUse"
       x2="1717.7"
       y1="670.67"
       x1="1600.3"
       inkscape:collect="always" />
    <radialGradient
       id="radialGradient19762"
       xlink:href="#linearGradient19729"
       gradientUnits="userSpaceOnUse"
       cy="684.62"
       cx="1664.1"
       gradientTransform="matrix(1.4904 0 0 1.5558 -816.02 -380.54)"
       r="64.153"
       inkscape:collect="always" />
    <linearGradient
       id="linearGradient19818"
       y2="740.08"
       xlink:href="#linearGradient19812"
       gradientUnits="userSpaceOnUse"
       x2="969.42"
       gradientTransform="matrix(1 0 -.62072 .85516 375.81 86.535)"
       y1="619.63"
       x1="969.42"
       inkscape:collect="always" />
    <filter
       id="filter20853"
       inkscape:collect="always">
      <feGaussianBlur
         id="feGaussianBlur20855"
         stdDeviation="7.8053154"
         inkscape:collect="always" />
    </filter>
    <linearGradient
       id="linearGradient20933"
       y2="513.79"
       xlink:href="#linearGradient19729"
       gradientUnits="userSpaceOnUse"
       x2="874.1"
       y1="283.81"
       x1="874.1"
       inkscape:collect="always" />
    <linearGradient
       id="linearGradient21924"
       y2="740.08"
       xlink:href="#linearGradient19812"
       gradientUnits="userSpaceOnUse"
       x2="969.42"
       gradientTransform="matrix(-1 0 .0098507 .85516 1023.6 85.954)"
       y1="619.63"
       x1="969.42"
       inkscape:collect="always" />
    <linearGradient
       id="linearGradient21926"
       y2="513.79"
       xlink:href="#linearGradient19729"
       gradientUnits="userSpaceOnUse"
       x2="874.1"
       gradientTransform="translate(-993.3 .94699)"
       y1="283.81"
       x1="874.1"
       inkscape:collect="always" />
  </defs>
  <g
     id="layer1"
     inkscape:label="Camada 1"
     inkscape:groupmode="layer">
    <rect
       id="rect5239"
       style="fill:#000000"
       rx=".74159"
       ry="4.2907"
       height="730.14"
       width="1060.6"
       y="-5.0782"
       x="-6.9208" />
    <rect
       id="rect5241"
       style="fill:#1a1a1a"
       rx="97.454"
       ry="113.07"
       height="525.98"
       width="994.86"
       y="22.605"
       x="22.492" />
    <rect
       id="rect5229"
       style="fill:url(#linearGradient5237)"
       rx=".75008"
       ry="3.9433"
       height="171.29"
       width="1069.3"
       y="579.73"
       x="-10.381" />
    <path
       id="path9410"
       d="m250.08 740.29c-0.1 0-0.19-0.02-0.27-0.04-0.25 0.01-0.58 0.01-0.92-0.02l-5.04-0.45c-0.71-0.07-1.23-0.22-1.16-0.35l31.09-55.7c0.03-0.05 0.13-0.08 0.27-0.1 0.08-0.04 0.17-0.07 0.26-0.07h141.82c0.06 0 0.11 0.01 0.16 0.03 0.47-0.01 0.84 0.04 0.89 0.14l31.09 55.7c0.07 0.13-0.45 0.28-1.17 0.35l-5.03 0.45c-0.34 0.03-0.67 0.03-0.92 0.02-0.08 0.02-0.18 0.04-0.27 0.04h-190.8zm7.43-3.14h175.2l-81.14-25.89h-12.91l-81.15 25.89zm180.13-2.43l-26.07-46.72-48.8 15.57c0.25 0.36 0.38 0.74 0.38 1.14v2.5c0 1.11-1.07 2.12-2.8 2.85l77.29 24.66zm-184.15-0.29l74.62-23.81c-2.69-0.72-4.46-1.98-4.46-3.41v-2.5c0-0.71 0.43-1.38 1.2-1.97l-45.58-14.54-25.78 46.23zm104.44-33.32l45.16-14.41h-115.98l44.06 14.06c0.7-0.07 1.43-0.1 2.17-0.1h20.12c1.62 0 3.14 0.16 4.47 0.45z"
       style="filter:url(#filter10429);fill:#000000"
       transform="matrix(1.8987 0 0 -1.7097 -341.3 1721.9)" />
    <path
       id="path11473"
       style="filter:url(#filter13510);fill:#000000"
       d="m470.5 308.84c-17.66 0.14-34.82 9.43-44.28 25.82-14.2 24.6-5.69 56.07 18.9 70.28 10.6 6.11 22.44 7.98 33.66 6.22 1.55 1.43 3.29 2.74 5.25 3.87l71.47 29.03c0.31 0.18 0.63 0.34 0.94 0.5 0.8 9.22 3.11 24.1 6.31 39.88l15.22 80.28 46.12-2.88-24.87-102.5 35.94 16.85c10.38 5.99 21.02 6.91 23.84 2.03l1.38-2.34c5.08 4.31 9.34 9.43 13.5 14.81 5.17 7.61 10.3 15 16.5 21.78 7.04 5.79 15.05 10.23 22.84 14.94 8.09 5.16 15.49 11.28 23.09 17.12 7.4 5.31 14.16 11.43 21.97 16.13 6.28 4.52 13.72 6.56 21 8.78l18.28-12.6c-7.23-1.94-14.42-3.87-20.78-8.06-7.49-5.01-14.54-10.59-21.72-16.03-7.61-5.97-15.39-11.75-23.25-17.37-7.64-4.64-15.51-8.99-22.56-14.5-6.18-6.66-11.3-13.94-16.41-21.47-5.86-7.87-12.32-15.32-20.9-20.32-3.77-2.84-7.72-4.96-11.94-6.43-2.18-2.07-4.84-4.07-7.88-5.82l-55.65-38.68c-1.36-4.37-4.36-8.61-8.69-11.94-0.38-9.96-1.19-15.42-8.97-12.1l-1.78 4.1-53.44-41.66c-1.26-0.73-2.57-1.29-3.87-1.81-3.75-11.8-11.66-22.36-23.22-29.03-7.69-4.44-15.99-6.66-24.28-6.88-0.57-0.01-1.15 0-1.72 0z" />
    <path
       id="path5253"
       style="fill:url(#linearGradient5264)"
       d="m516.12 594.74c-0.07 0-0.15 0-0.18 0.01l-4.73 0.87c-0.29 0.06 0.76 0.43 2.35 0.84l102.47 27.4 36.3 38.08-26.8 12.66 10.42-0.15 19.18-9.58 8.42 8.84c0.47 0.49 1.19 0.89 1.6 0.89h6.75c0.41 0 0.37-0.4-0.1-0.89l-8.42-8.84 39.44 9.58 10.71 0.15-52.95-12.66-33.57-35.22c0.77 0.15 1.38 0.25 1.55 0.22l4.73-0.88c0.29-0.05-0.76-0.42-2.36-0.83l-7.17-1.92-1.44-1.51c-0.47-0.5-1.19-0.89-1.6-0.89h-5.94l-95.42-25.52c-1.4-0.36-2.73-0.62-3.24-0.65z" />
    <path
       id="rect19822"
       sodipodi:nodetypes="ccccccccccccc"
       style="filter:url(#filter20853);fill:#000000"
       d="m787.06 323.28c-8.12 0-14.65 7.09-14.65 15.91v195.75c0 8.82 6.53 15.94 14.65 15.94h63.1c-0.09-0.58-0.16-1.15-0.16-1.76v-98.84c0-6.13 4.54-11.06 10.19-11.06h142.31c1.4 0 2.7 0.32 3.9 0.87v-100.9c0-8.82-6.52-15.91-14.65-15.91h-204.69z" />
    <path
       id="path4258"
       style="fill:#999999"
       d="m679.57 464.79c0.34-0.23-0.36-1.85-1.57-3.62l-79.28-124.05-3.85-6.01c-1.2-1.77-0.27-3.19-2.8-2.78l-5.58 3.81c-0.34 0.23 0.36 1.85 1.57 3.62l3.8 5.94 79.33 124.12c1.2 1.77 2.46 3.01 2.8 2.78l5.58-3.81z"
       inkscape:transform-center-x="33.80292"
       sodipodi:nodetypes="ccccccccccc"
       inkscape:transform-center-y="-52.409414" />
    <path
       id="path4256"
       style="fill:#999999"
       d="m665.15 442.34c-0.41 0-0.75 1.73-0.75 3.87v174.94l-38.87 55.19 10.56-0.66 28.31-41.75v38.53c0 2.14 0.34 3.88 0.75 3.88h6.75c0.42 0 0.75-1.74 0.75-3.88v-38.53l30.32 41.75 10.56 0.66-40.88-55.19v-174.94c0-2.14-0.33-3.87-0.75-3.87h-6.75z"
       sodipodi:nodetypes="ccccccccccccccccc" />
    <path
       id="path8407"
       style="fill:url(#radialGradient8422)"
       d="m668.91 466.48c-0.14 51.55 0.05 103.1-0.04 154.66-11.84 17.84-25.95 34.44-38.72 51.77 5.85-1.17 6.77-8.08 10.66-11.53 7.45-9.81 14.33-20.2 22.14-29.64 4.08-1.51 7.1 3.02 6.23 6.39-1.06 8.83 0.11 17.71-0.33 26.6 0.24 2.78-0.41 6.25 0.44 8.65 2.91 0.27 1.09-3.99 1.32-5.44 0.02-11.32 0.07-22.69 0.04-34.03 1.71-3.72 7.46-2.45 9.04 0.77 5.19 8.37 12.3 15.53 18.11 23.57 3.98 4.72 7.44 10.15 11.72 14.44 1.64 0.51 2.41 0.1 0.91-1.22-9.37-10.86-17.88-22.43-27.2-33.5-4.29-5.52-8.94-10.95-12.58-16.83-0.07-58.51 0.2-117.01-0.13-175.51-3.52 0.48-0.6 6.91-1.57 9.74-0.01 3.71-0.03 7.41-0.04 11.11z" />
    <g
       id="g11457"
       transform="matrix(.077098 -.13354 .13354 .077098 604.24 145.31)">
      <path
         id="path10450"
         style="fill:#000000"
         d="m-1123.7 516.35h49c10.6 0 19.1 18.2 19.1 40.8l-11.7 136.8c0 22.6-8.5 40.8-19.1 40.8h-25.6c-10.6 0-19.1-18.2-19.1-40.8l-11.7-136.8c0-22.6 8.5-40.8 19.1-40.8z" />
      <path
         id="path11441"
         style="fill:url(#linearGradient11465)"
         d="m-1119.3 516.35h40.2c8.7 0 15.8 18.2 15.8 40.8l-9.7 136.8c0 22.6-7 40.8-15.7 40.8h-21c-8.7 0-15.8-18.2-15.8-40.8l-9.6-136.8c0-22.6 7-40.8 15.8-40.8z" />
      <path
         id="rect10447"
         style="fill:#000000"
         d="m-1141 346.64h83.6c18.1 0 32.7 19.14 32.7 42.92l-20 143.94c0 23.78-14.6 42.92-32.7 42.92h-43.6c-18.1 0-32.7-19.14-32.7-42.92l-20-143.94c0-23.78 14.6-42.92 32.7-42.92z" />
      <path
         id="path11431"
         style="fill:url(#linearGradient11467)"
         d="m-1136.6 346.64h74.8c16.3 0 29.4 19.14 29.4 42.92l-18 143.94c0 23.78-13 42.92-29.3 42.92h-39c-16.3 0-29.4-19.14-29.4-42.92l-17.9-143.94c0-23.78 13.1-42.92 29.4-42.92z" />
      <path
         id="path10445"
         d="m-999.84 330.34c0 53.56-43.46 97.03-97.06 97.03-53.5 0-97-43.47-97-97.03s43.5-97.04 97-97.04c53.6 0 97.06 43.48 97.06 97.04z"
         style="fill:#000000"
         transform="translate(2.1313e-8 -13.973)" />
      <path
         id="path10452"
         d="m-999.84 330.34c0 53.56-43.46 97.03-97.06 97.03-53.5 0-97-43.47-97-97.03s43.5-97.04 97-97.04c53.6 0 97.06 43.48 97.06 97.04z"
         style="fill:url(#radialGradient11469)"
         transform="matrix(.936 0 0 .936 -70.2 7.1687)" />
    </g>
    <path
       id="path13520"
       style="fill-rule:evenodd;fill:url(#linearGradient15474)"
       d="m593.42 343.68s-6.75-2.66-4.58-8.44c2.17-5.79 1.52-11.51 6.34-9.1 2.18 1.09 4.9 2.39 5.29 4.59 0.33 1.9 2.89 2.74 5.04 4.23 3.27 2.27 3.38 4.1 0.96 8.44-0.3 0.54-1.7 1.47-1.52 2.32 0.49 2.23 2.21 4.94 2.21 4.94l-5.54-0.96-8.2-6.02z"
       sodipodi:nodetypes="cssssssccc" />
    <path
       id="path16513"
       style="stroke-linejoin:round;stroke:#000000;stroke-linecap:round;stroke-width:5.1;fill:none"
       d="m608.27 346.22h1.73c12.76 0 31.12 23.99 31.12 34.57 0 10.5-1.73 16.13-1.73 25.93v29.39c0 9.36 14.79 18.01 20.74 22.47 8.04 6.03 15.06 17.02 17.29 25.93 2.07 8.28 8.15 17.05 10.37 25.94 2.48 9.9 8 19.86 10.38 29.38 2.31 9.27 4.66 16.95 6.91 25.93 2.06 8.24 1.73 17.06 1.73 25.94v25.93c0 10.65 4.29 17.23 8.64 25.93 2.79 5.57 26.18 0.29 27.66 0 12.88-2.58 26.58-6.38 38.04-12.1 11.28-5.65 7.41-14.31 0-24.21-7.59-10.11-13.27-5.9-24.21-8.64-10.28-2.57-17.63 7.26-22.47 12.1-6.89 6.89-3.64 22.11 0 29.39 5.39 10.78 13.06 12.1 24.2 12.1h8.65c14.67 0 27.53 5.19 41.48 5.19 11.44 0 20.91-7.08 27.66-13.83 7.4-7.4 11.04-9.57 13.83-20.75 2.25-8.98-4.95-18.08-6.91-25.93-2.68-10.72-7.79-20.77-10.37-31.12-2.32-9.28-2.19-18.91 0-27.66 2.89-11.58-2.22-14.14 10.37-17.28 5.52-1.38 8.9-3.46 15.56-3.46" />
    <path
       id="rect19778"
       style="fill:url(#linearGradient19818)"
       d="m814.19 719.28c-5.21 0-8.46-1.3-7.28-2.92l42.33-58.32c1.18-1.62 6.31-2.93 11.53-2.93h131.31c5.22 0 8.52 1.31 7.32 2.93l-42.34 58.32c-1.17 1.62-6.34 2.92-11.55 2.92h-131.32z" />
    <path
       id="path20935"
       style="fill-rule:evenodd;fill:#212121"
       d="m855.63 443.1l25.98-27.51h80.98l27.5 25.98-134.46 1.53z" />
    <rect
       id="rect18734"
       style="fill:url(#linearGradient20933)"
       rx="9.4136"
       ry="10.218"
       height="224.32"
       width="150.15"
       y="438.55"
       x="848.25" />
    <path
       id="path18736"
       sodipodi:rx="125.28901"
       sodipodi:ry="125.28901"
       style="fill:url(#linearGradient19758)"
       sodipodi:type="arc"
       d="m1810.6 730.34a125.29 125.29 0 1 1 -250.6 0 125.29 125.29 0 1 1 250.6 0z"
       transform="matrix(.39787 0 0 .39787 252.81 209.37)"
       sodipodi:cy="730.34326"
       sodipodi:cx="1685.2899" />
    <path
       id="path18748"
       sodipodi:rx="125.28901"
       sodipodi:ry="125.28901"
       style="fill:url(#linearGradient19760)"
       sodipodi:type="arc"
       d="m1810.6 730.34a125.29 125.29 0 1 1 -250.6 0 125.29 125.29 0 1 1 250.6 0z"
       transform="matrix(.35420 0 0 .35420 326.4 241.26)"
       sodipodi:cy="730.34326"
       sodipodi:cx="1685.2899" />
    <path
       id="path18758"
       sodipodi:rx="64.152771"
       sodipodi:ry="64.152771"
       style="fill:url(#radialGradient19762)"
       sodipodi:type="arc"
       d="m1744 723.9a64.153 64.153 0 1 1 -128.3 0 64.153 64.153 0 1 1 128.3 0z"
       transform="matrix(.36103 0 0 .36103 316.85 238.6)"
       sodipodi:cy="723.89825"
       sodipodi:cx="1679.8523" />
    <path
       id="path19737"
       sodipodi:rx="125.28901"
       sodipodi:ry="125.28901"
       style="fill:url(#linearGradient19758)"
       sodipodi:type="arc"
       d="m1810.6 730.34a125.29 125.29 0 1 1 -250.6 0 125.29 125.29 0 1 1 250.6 0z"
       transform="matrix(.39787 0 0 .39787 252.81 314.3)"
       sodipodi:cy="730.34326"
       sodipodi:cx="1685.2899" />
    <path
       id="path19739"
       sodipodi:rx="125.28901"
       sodipodi:ry="125.28901"
       style="fill:url(#linearGradient19760)"
       sodipodi:type="arc"
       d="m1810.6 730.34a125.29 125.29 0 1 1 -250.6 0 125.29 125.29 0 1 1 250.6 0z"
       transform="matrix(.35420 0 0 .35420 326.4 346.19)"
       sodipodi:cy="730.34326"
       sodipodi:cx="1685.2899" />
    <path
       id="path19741"
       sodipodi:rx="64.152771"
       sodipodi:ry="64.152771"
       style="fill:url(#radialGradient19762)"
       sodipodi:type="arc"
       d="m1744 723.9a64.153 64.153 0 1 1 -128.3 0 64.153 64.153 0 1 1 128.3 0z"
       transform="matrix(.36103 0 0 .36103 316.85 343.53)"
       sodipodi:cy="723.89825"
       sodipodi:cx="1679.8523" />
    <path
       id="path21940"
       sodipodi:nodetypes="ccccccccccccc"
       style="filter:url(#filter20853);fill:#000000"
       transform="matrix(-.66046 0 0 .66046 221.74 113.81)"
       d="m113.09 346.11c-8.12 0-14.654 7.08-14.654 15.9v292.65c0 8.82 6.534 15.94 14.654 15.94h63.1c-0.09-0.57-0.16-1.15-0.16-1.75v-195.74c0-6.14 4.54-11.07 10.19-11.07h142.28c1.4 0 2.72 0.33 3.94 0.88v-100.91c0-8.82-6.53-15.9-14.66-15.9h-204.69z" />
    <path
       id="path21906"
       style="fill:url(#linearGradient21924)"
       d="m133.27 718.7c5.21 0 9.39-1.3 9.37-2.92l-0.67-58.32c-0.02-1.62-4.23-2.93-9.44-2.93h-131.31c-5.2178 0-9.4252 1.31-9.4067 2.93l0.6719 58.32c0.0187 1.62 4.2561 2.92 9.4712 2.92h131.31z" />
    <path
       id="path21908"
       style="fill-rule:evenodd;fill:#212121"
       d="m137.67 444.04l-25.98-27.5h-80.977l-27.502 25.97 134.46 1.53z" />
    <rect
       id="rect21910"
       style="fill:url(#linearGradient21926)"
       transform="scale(-1,1)"
       rx="9.4136"
       ry="10.218"
       height="224.32"
       width="150.15"
       y="439.49"
       x="-145.05" />
    <path
       id="path21912"
       sodipodi:rx="125.28901"
       sodipodi:ry="125.28901"
       style="fill:url(#linearGradient19758)"
       sodipodi:type="arc"
       d="m1810.6 730.34a125.29 125.29 0 1 1 -250.6 0 125.29 125.29 0 1 1 250.6 0z"
       transform="matrix(-.39787 0 0 .39787 740.49 210.31)"
       sodipodi:cy="730.34326"
       sodipodi:cx="1685.2899" />
    <path
       id="path21914"
       sodipodi:rx="125.28901"
       sodipodi:ry="125.28901"
       style="fill:url(#linearGradient19760)"
       sodipodi:type="arc"
       d="m1810.6 730.34a125.29 125.29 0 1 1 -250.6 0 125.29 125.29 0 1 1 250.6 0z"
       transform="matrix(-.35420 0 0 .35420 666.9 242.21)"
       sodipodi:cy="730.34326"
       sodipodi:cx="1685.2899" />
    <path
       id="path21916"
       sodipodi:rx="64.152771"
       sodipodi:ry="64.152771"
       style="fill:url(#radialGradient19762)"
       sodipodi:type="arc"
       d="m1744 723.9a64.153 64.153 0 1 1 -128.3 0 64.153 64.153 0 1 1 128.3 0z"
       transform="matrix(-.36103 0 0 .36103 676.45 239.54)"
       sodipodi:cy="723.89825"
       sodipodi:cx="1679.8523" />
    <path
       id="path21918"
       sodipodi:rx="125.28901"
       sodipodi:ry="125.28901"
       style="fill:url(#linearGradient19758)"
       sodipodi:type="arc"
       d="m1810.6 730.34a125.29 125.29 0 1 1 -250.6 0 125.29 125.29 0 1 1 250.6 0z"
       transform="matrix(-.39787 0 0 .39787 740.49 315.25)"
       sodipodi:cy="730.34326"
       sodipodi:cx="1685.2899" />
    <path
       id="path21920"
       sodipodi:rx="125.28901"
       sodipodi:ry="125.28901"
       style="fill:url(#linearGradient19760)"
       sodipodi:type="arc"
       d="m1810.6 730.34a125.29 125.29 0 1 1 -250.6 0 125.29 125.29 0 1 1 250.6 0z"
       transform="matrix(-.35420 0 0 .35420 666.9 347.14)"
       sodipodi:cy="730.34326"
       sodipodi:cx="1685.2899" />
    <path
       id="path21922"
       sodipodi:rx="64.152771"
       sodipodi:ry="64.152771"
       style="fill:url(#radialGradient19762)"
       sodipodi:type="arc"
       d="m1744 723.9a64.153 64.153 0 1 1 -128.3 0 64.153 64.153 0 1 1 128.3 0z"
       transform="matrix(-.36103 0 0 .36103 676.45 344.48)"
       sodipodi:cy="723.89825"
       sodipodi:cx="1679.8523" />
    <path
       id="rect8424"
       style="fill:#808080"
       d="m267.34 361.18c-0.1 0-0.19 0.04-0.28 0.1-0.25-0.05-0.57-0.04-0.92 0.04l-5.03 1.13c-0.71 0.16-1.23 0.54-1.16 0.85l31.09 138.36c0.02 0.11 0.12 0.19 0.27 0.25 0.08 0.1 0.16 0.16 0.26 0.16h141.82c0.05 0 0.1-0.03 0.15-0.06 0.48 0.01 0.84-0.12 0.89-0.35l31.09-138.36c0.07-0.31-0.45-0.69-1.16-0.85l-5.03-1.13c-0.35-0.08-0.67-0.09-0.92-0.04-0.09-0.06-0.18-0.1-0.28-0.1h-190.79zm7.42 7.8h175.2l-81.14 64.29h-12.91l-81.15-64.29zm180.14 6.03l-26.08 116.03-48.8-38.66c0.25-0.9 0.39-1.85 0.39-2.84v-6.19c0-2.78-1.07-5.28-2.81-7.1l77.3-61.24zm-184.15 0.72l74.61 59.13c-2.68 1.79-4.45 4.91-4.45 8.49v6.19c0 1.78 0.43 3.44 1.2 4.89l-45.58 36.12-25.78-114.82zm104.44 82.76l45.16 35.78h-115.98l44.06-34.91c0.7 0.16 1.42 0.25 2.17 0.25h20.12c1.61 0 3.13-0.4 4.47-1.12z" />
    <path
       id="path5243"
       d="m268.05 569.03c-0.42 0-0.21 0.93 0.48 2.08l68.56 115.86-51.98 29.75 18.54-0.35 37.52-22.51 12.29 20.77c0.68 1.16 1.58 2.09 1.99 2.09h10.86c0.42 0 0.21-0.93-0.47-2.09l-12.3-20.77 64.16 22.51 18.96 0.35-87.19-29.75-68.57-115.86c-0.68-1.15-1.58-2.08-1.99-2.08h-10.86z"
       style="fill:url(#linearGradient5251)"
       sodipodi:nodetypes="ccccccccccccccccc" />
    <path
       id="rect2174"
       style="fill:url(#linearGradient10443)"
       d="m344.55 442.72c-0.41 0-0.75 1.74-0.75 3.88l10 10.61v204.32l-68.87 55.19 18.56-0.66 50.31-41.75v38.54c0 2.14 0.34 3.87 0.75 3.87h10.75c0.42 0 0.75-1.73 0.75-3.87v-38.54l50.32 41.75 18.56 0.66-68.88-55.19v-204.87l12-10.06c0-2.14-0.33-3.88-0.75-3.88h-32.75z"
       sodipodi:nodetypes="ccccccccccccccccccc" />
    <path
       id="path8377"
       style="fill:url(#radialGradient8405)"
       d="m359.65 444.66c-0.12 71.62-0.05 143.25-0.07 214.87-8.19 10.48-21.26 16.84-31.42 25.63-11.09 8.4-22.49 16.91-33.38 25.25 8.74 0.84 13.18-7.47 19.67-11.34 13.14-9.89 25.71-20.83 39.19-30.07 6.46-0.51 7.09 7.63 5.88 12.03-0.05 9.91 0 20.13 0.23 30.03 3.74 1.27 6.19-2.06 4.54-5.25-0.13-11.39-0.72-23.15 0.29-34.39 3.65-5.02 10.74-0.24 13.55 3.46 15.24 11.6 30.34 24.07 45.79 35.28 7.92 1.39 3.35-1.22-0.89-4.22-19.18-14.81-39.2-28.94-57.86-44.16-2.6-16.54-0.24-33.53-1.09-50.25-0.14-55.52 0.43-111.54-0.32-166.75-1.37-0.03-2.74-0.23-4.11-0.12z" />
  </g>
  <metadata
     id="metadata108">
    <rdf:RDF>
      <cc:Work>
        <dc:format>image/svg+xml</dc:format>
        <dc:type
           rdf:resource="http://purl.org/dc/dcmitype/StillImage" />
        <cc:license
           rdf:resource="http://creativecommons.org/publicdomain/zero/1.0/" />
        <dc:publisher>
          <cc:Agent
             rdf:about="http://openclipart.org/">
            <dc:title>Openclipart</dc:title>
          </cc:Agent>
        </dc:publisher>
        <dc:title>Stage</dc:title>
        <dc:date>2007-02-02T17:36:45</dc:date>
        <dc:description>using blur in inkscape</dc:description>
        <dc:source>https://openclipart.org/detail/3019/stage-by-valessiobrito-3019</dc:source>
        <dc:creator>
          <cc:Agent>
            <dc:title>valessiobrito</dc:title>
          </cc:Agent>
        </dc:creator>
        <dc:subject>
          <rdf:Bag>
            <rdf:li>instrument</rdf:li>
            <rdf:li>music</rdf:li>
            <rdf:li>remix</rdf:li>
            <rdf:li>sound</rdf:li>
          </rdf:Bag>
        </dc:subject>
      </cc:Work>
      <cc:License
         rdf:about="http://creativecommons.org/publicdomain/zero/1.0/">
        <cc:permits
           rdf:resource="http://creativecommons.org/ns#Reproduction" />
        <cc:permits
           rdf:resource="http://creativecommons.org/ns#Distribution" />
        <cc:permits
           rdf:resource="http://creativecommons.org/ns#DerivativeWorks" />
      </cc:License>
    </rdf:RDF>
  </metadata>
</svg>
